<?xml version="1.0" standalone="no"?>
<!DOCTYPE svg PUBLIC "-//W3C//DTD SVG 20010904//EN"
 "http://www.w3.org/TR/2001/REC-SVG-20010904/DTD/svg10.dtd">
<svg version="1.0" xmlns="http://www.w3.org/2000/svg"
 width="512.000000pt" height="512.000000pt" viewBox="0 0 512.000000 512.000000"
 preserveAspectRatio="xMidYMid meet">

<g transform="translate(0.000000,512.000000) scale(0.100000,-0.100000)"
fill="#000000" stroke="none">
<path d="M697 4999 c-245 -60 -461 -260 -542 -502 -14 -42 -30 -110 -35 -150
-14 -105 -13 -3473 1 -3574 25 -182 95 -321 229 -455 75 -74 101 -93 191 -136
183 -89 20 -82 2019 -82 1999 0 1836 -7 2019 82 90 43 116 62 191 136 134 134
204 273 229 455 15 109 15 3465 0 3574 -25 182 -95 321 -229 455 -75 74 -101
93 -191 136 -183 89 -19 82 -2026 81 -1720 0 -1781 -1 -1856 -20z m3678 -104
c39 -8 108 -33 155 -56 162 -80 304 -257 345 -430 10 -43 15 -118 15 -231 l0
-168 -2330 0 -2330 0 0 168 c0 193 12 255 67 370 29 59 57 97 123 163 96 96
182 147 302 179 70 18 134 19 1828 19 1504 1 1765 -1 1825 -14z m522 -2557
c-3 -1703 0 -1602 -58 -1733 -82 -186 -269 -339 -464 -380 -105 -22 -3525 -22
-3630 0 -235 49 -445 253 -500 487 -13 54 -15 278 -15 1626 l0 1562 2335 0
2336 0 -4 -1562z"/>
<path d="M725 4671 c-118 -53 -167 -193 -109 -310 92 -184 353 -163 420 33 37
108 -21 236 -128 280 -50 21 -134 20 -183 -3z m170 -121 c82 -77 34 -200 -78
-200 -54 0 -91 26 -107 75 -16 49 -4 89 37 126 32 27 42 31 80 26 27 -3 54
-14 68 -27z"/>
<path d="M1385 4671 c-119 -54 -167 -187 -111 -307 67 -143 260 -173 367 -57
46 49 63 93 63 158 -1 96 -54 175 -141 212 -45 19 -131 16 -178 -6z m144 -104
c39 -20 63 -61 63 -105 -1 -72 -45 -112 -120 -112 -44 0 -76 20 -97 60 -51 98
56 207 154 157z"/>
<path d="M2635 4641 c-99 -46 -141 -158 -96 -256 21 -46 79 -101 119 -112 15
-5 394 -8 842 -8 l815 0 42 24 c140 80 135 279 -8 351 -37 19 -64 20 -856 20
-774 0 -820 -1 -858 -19z m1686 -120 c37 -38 39 -82 4 -116 l-24 -25 -808 0
c-854 1 -826 -1 -851 47 -19 35 -14 63 17 94 l29 29 802 0 802 0 29 -29z"/>
<path d="M1625 3625 c-274 -51 -504 -174 -695 -371 -231 -239 -350 -534 -350
-869 0 -604 418 -1107 1025 -1232 115 -23 354 -23 465 1 510 110 895 496 994
996 35 179 29 367 -19 554 -89 349 -348 662 -676 815 -176 82 -302 111 -509
116 -109 3 -179 0 -235 -10z m330 -105 c501 -57 903 -429 1001 -925 33 -168
16 -407 -40 -571 -73 -215 -238 -440 -408 -558 l-55 -38 -54 17 c-30 9 -96 19
-146 22 l-93 6 1 46 c0 44 2 47 59 89 92 67 198 223 216 318 5 26 14 34 60 53
64 27 116 83 134 145 18 67 8 492 -14 571 -73 261 -268 469 -519 556 -295 101
-613 26 -834 -198 -115 -117 -199 -286 -223 -448 -15 -105 -12 -442 4 -488 22
-60 64 -106 123 -135 49 -24 57 -32 72 -77 44 -126 115 -227 212 -302 55 -43
59 -49 59 -88 l0 -42 -89 -6 c-50 -3 -117 -13 -150 -23 l-61 -17 -43 28 c-66
44 -238 223 -291 303 -63 95 -120 226 -153 349 -24 89 -27 115 -27 278 0 163
3 189 26 277 112 414 421 723 830 829 141 37 259 45 403 29z m103 -373 c108
-38 177 -82 268 -173 63 -63 90 -99 123 -165 55 -111 71 -172 78 -306 l6 -112
-45 17 c-42 15 -47 20 -62 66 -41 133 -174 284 -307 350 -252 126 -563 67
-749 -142 -50 -55 -108 -156 -129 -224 -8 -25 -21 -39 -39 -46 -15 -6 -36 -13
-46 -18 -18 -7 -19 -3 -12 96 8 133 27 213 71 304 87 178 253 314 449 367 105
28 293 22 394 -14z m-53 -396 c117 -41 228 -136 284 -241 49 -92 61 -156 61
-328 0 -137 -3 -161 -25 -228 -76 -226 -264 -367 -490 -367 -198 0 -375 110
-459 285 -44 93 -56 161 -56 317 0 209 41 324 155 438 67 67 171 125 256 143
70 14 206 5 274 -19z m-795 -561 c0 -55 -4 -100 -8 -100 -33 0 -65 84 -52 131
10 33 37 69 52 69 4 0 8 -45 8 -100z m1289 76 c34 -36 38 -93 9 -135 -41 -61
-48 -53 -48 58 0 56 4 101 8 101 5 0 19 -11 31 -24z m-779 -782 c83 -18 148
-17 235 1 90 19 85 20 85 -19 0 -28 -14 -49 -86 -130 -80 -89 -89 -96 -124
-96 -45 0 -59 11 -144 115 -56 68 -66 85 -66 118 0 33 3 38 18 32 9 -4 46 -13
82 -21z m-146 -169 c41 -50 37 -53 -45 -29 -174 52 -193 74 -63 74 l72 0 36
-45z m714 36 c16 -10 -131 -66 -200 -78 l-42 -6 38 46 38 47 77 0 c42 0 82 -4
89 -9z"/>
<path d="M1479 2397 c-24 -13 -50 -35 -58 -49 -13 -23 -13 -29 2 -52 21 -32
58 -34 94 -6 32 25 81 25 113 0 67 -52 139 22 78 81 -57 54 -155 65 -229 26z"/>
<path d="M2020 2404 c-74 -32 -100 -83 -62 -117 24 -22 50 -21 87 3 17 11 41
20 55 20 14 0 39 -9 55 -20 37 -25 67 -25 88 -2 69 76 -107 166 -223 116z"/>
<path d="M1530 2180 c-43 -43 -14 -110 48 -110 57 0 82 68 39 108 -29 27 -61
28 -87 2z"/>
<path d="M1797 2182 c-11 -12 -17 -36 -17 -70 0 -41 4 -54 22 -66 51 -36 88
-6 88 72 0 56 -17 82 -54 82 -13 0 -30 -8 -39 -18z"/>
<path d="M2054 2174 c-42 -41 -15 -104 45 -104 48 0 78 41 61 84 -18 49 -68
59 -106 20z"/>
<path d="M1765 1914 c-47 -26 -65 -45 -65 -70 0 -50 53 -69 108 -37 28 16 32
16 64 -1 45 -25 80 -18 92 17 12 32 3 51 -37 81 -36 26 -122 32 -162 10z"/>
<path d="M3433 3240 c-57 -35 -63 -58 -63 -262 0 -202 4 -218 59 -255 l34 -23
541 0 c525 0 542 1 574 20 56 35 64 69 60 275 -3 155 -6 185 -21 209 -37 56
-39 56 -619 56 -511 0 -534 -1 -565 -20z m1087 -260 l0 -170 -517 2 -518 3 -3
155 c-1 85 0 160 2 167 4 10 109 13 521 13 l515 0 0 -170z"/>
<path d="M3843 2250 c-57 -23 -51 -94 9 -105 18 -3 210 -5 426 -3 376 3 394 4
408 22 19 26 18 39 -5 67 l-19 24 -399 2 c-219 1 -408 -2 -420 -7z"/>
<path d="M3220 1865 c-18 -22 -15 -66 6 -82 14 -10 79 -13 284 -13 246 0 268
1 283 18 21 23 22 56 1 76 -23 23 -555 24 -574 1z"/>
<path d="M4237 1862 c-23 -26 -21 -58 5 -76 16 -12 47 -16 109 -16 94 0 119
13 119 61 0 42 -17 49 -120 49 -81 0 -100 -3 -113 -18z"/>
<path d="M3226 1497 c-11 -8 -18 -26 -18 -42 0 -57 -25 -55 748 -55 l713 0 15
22 c21 30 20 44 -4 68 -20 20 -33 20 -728 20 -573 0 -712 -3 -726 -13z"/>
<path d="M3234 1132 c-24 -16 -33 -48 -21 -73 l13 -24 719 -3 720 -2 18 21
c22 28 22 44 -3 69 -20 20 -33 20 -727 20 -390 0 -713 -4 -719 -8z"/>
<path d="M702 794 c-24 -17 -30 -62 -10 -82 9 -9 245 -12 999 -12 l988 0 15
22 c21 30 20 44 -4 68 -20 20 -33 20 -993 20 -864 0 -975 -2 -995 -16z"/>
<path d="M3232 794 c-24 -17 -30 -62 -10 -82 17 -17 889 -17 906 0 20 20 14
65 -10 82 -19 14 -79 16 -443 16 -364 0 -424 -2 -443 -16z"/>
</g>
</svg>
